<svg xmlns="http://www.w3.org/2000/svg" data-name="Cloud" viewBox="0 0 530 345">
  <path fill="#00adef" d="M479.11 185.92c-1 0-1.92 0-2.87.08h-73.86c-5.67 0-10.67-4.44-10.67-9.46 0-5.32 5-9.46 10.67-9.46h61.67c20 0 36-14.19 36-31.64 0-17.74-16-31.93-36-31.93H325.71v-.3a7.14 7.14 0 0 1 0-14.19h1a1.21 1.21 0 0 1 .67-.3c.33 0 .67.3 1 .3h117.67c15.34 0 27.67-11.24 27.67-24.54 0-13.6-12.34-24.54-27.67-24.54H301c-3 0-5.33-2.37-5.33-4.73 0-2.66 2.33-4.73 5.33-4.73h63c9.33 0 17-6.8 17-15.38C381 6.8 373.38 0 364 0H134.35c-9.33 0-17 6.8-17 15.08 0 8.58 7.67 15.38 17 15.38h73c6.33 0 11 4.14 11 9.76 0 5.32-4.67 9.76-11 9.76h-146C27.34 50 0 74.22 0 104.08 0 128 17.16 148.14 41.19 155.5a55.19 55.19 0 0 0 19.48 3.5h37c5.67 0 10.67 4.44 10.67 9.46 0 5.32-5 9.46-10.67 9.46H36c-20 0-36 14.19-36 31.64 0 17.74 16 31.93 36 31.93h138.35v.3a7.14 7.14 0 0 1 0 14.19h-1a1.21 1.21 0 0 1-.67.3c-.33 0-.67-.3-1-.3H54c-15.34 0-27.67 11.24-27.67 24.54 0 13.6 12.34 24.54 27.67 24.54h145c3 0 5.33 2.37 5.33 4.73 0 2.66-2.33 4.73-5.33 4.73h-63c-9.33 0-17 6.8-17 15.38 0 8.28 7.67 15.08 17 15.08h267.7c14.92-.35 26.9-11.19 26.9-24.54 0-13.56-12.37-24.55-27.63-24.55H325.37c-6.33 0-11-4.14-11-9.76 0-5.32 4.67-9.76 11-9.76h146c2.27 0 4.36 0 6.29-.08h1.43c28.11 0 50.89-20.25 50.89-45.23s-22.77-45.14-50.87-45.14zm-129.38 88.52l1 .72zm1.94 1.45l.43.32z" opacity=".1"/>
</svg>
